HIERARCHY
ROOT hip
{
	OFFSET 0.000000 0.000000 0.000000
	CHANNELS 6 Xposition Yposition Zposition Xrotation Zrotation Yrotation 
	JOINT abdomen
	{
		OFFSET 0.000000 3.422050 0.000000
		CHANNELS 3 Xrotation Zrotation Yrotation 
		JOINT chest
		{
			OFFSET 0.000000 8.486693 -0.684411
			CHANNELS 3 Xrotation Zrotation Yrotation 
			JOINT neck
			{
				OFFSET 0.000000 10.266162 -0.273764
				CHANNELS 3 Xrotation Zrotation Yrotation 
				JOINT head
				{
					OFFSET 0.000000 3.148285 0.000000
					CHANNELS 3 Xrotation Zrotation Yrotation 
					End Site
					{
						OFFSET 0.000000 3.148289 0.000000
					}
				}
			}
			JOINT lCollar
			{
				OFFSET 3.422053 6.707223 -0.821293
				CHANNELS 3 Yrotation Zrotation Xrotation 
				JOINT lShldr
				{
					OFFSET 3.285171 0.000000 0.000000
					CHANNELS 3 Zrotation Yrotation Xrotation 
					JOINT lForeArm
					{
						OFFSET 10.129278 0.000000 0.000000
						CHANNELS 3 Yrotation Zrotation Xrotation 
						JOINT lHand
						{
							OFFSET 8.486692 0.000000 0.000000
							CHANNELS 3 Zrotation Yrotation Xrotation 
							End Site
							{
								OFFSET 4.106464 0.000000 0.000000
							}
						}
					}
				}
			}
			JOINT rCollar
			{
				OFFSET -3.558935 6.707223 -0.821293
				CHANNELS 3 Yrotation Zrotation Xrotation 
				JOINT rShldr
				{
					OFFSET -3.148289 0.000000 0.000000
					CHANNELS 3 Zrotation Yrotation Xrotation 
					JOINT rForeArm
					{
						OFFSET -10.266159 0.000000 0.000000
						CHANNELS 3 Yrotation Zrotation Xrotation 
						JOINT rHand
						{
							OFFSET -8.349810 0.000000 0.000000
							CHANNELS 3 Zrotation Yrotation Xrotation 
							End Site
							{
								OFFSET -4.106464 0.000000 0.000000
							}
						}
					}
				}
			}
		}
	}
	JOINT lThigh
	{
		OFFSET 5.338403 -1.642589 1.368821
		CHANNELS 3 Xrotation Zrotation Yrotation 
		JOINT lShin
		{
			OFFSET -2.053232 -20.121670 0.000000
			CHANNELS 3 Xrotation Zrotation Yrotation 
			JOINT lFoot
			{
				OFFSET 0.000000 -19.300380 -1.231939
				CHANNELS 3 Xrotation Yrotation Zrotation 
				End Site
				{
					OFFSET 0.000000 -2.463878 4.653993
				}
			}
		}
	}
	JOINT rThigh
	{
		OFFSET -5.338403 -1.642589 1.368821
		CHANNELS 3 Xrotation Zrotation Yrotation 
		JOINT rShin
		{
			OFFSET 2.053232 -20.121670 0.000000
			CHANNELS 3 Xrotation Zrotation Yrotation 
			JOINT rFoot
			{
				OFFSET 0.000000 -19.300380 -1.231939
				CHANNELS 3 Xrotation Yrotation Zrotation 
				End Site
				{
					OFFSET 0.000000 -2.463878 4.653993
				}
			}
		}
	}
}
MOTION
Frames: 17
Frame Time: 0.100000
0.000000 43.528500 0.000000 0.000000 0.000000 0.000000 0.000000 0.000000 0.000000 0.000000 0.000000 0.000000 0.000000 0.000000 0.000000 0.000000 0.000000 0.000000 0.000000 0.000000 0.000000 0.000000 0.000000 0.000000 0.000000 0.000000 0.000000 0.000000 0.000000 0.000000 0.000000 0.000000 0.000000 0.000000 0.000000 0.000000 0.000000 0.000000 0.000000 0.000000 0.000000 0.000000 0.000000 0.000000 0.000000 0.000000 0.000000 0.000000 0.000000 0.000000 0.000000 0.000000 0.000000 0.000000 0.000000 0.000000 0.000000 0.000000 0.000000 0.000000 
0.000000 4.831345 0.000000 -76.016930 0.000000 0.000000 6.537897 0.000000 0.000000 30.257004 -0.118890 -0.638939 17.998348 0.000000 0.000000 8.998567 0.000000 0.000000 7.404835 -4.764580 -2.085511 -72.066978 29.560530 2.617946 -74.212662 1.949811 33.953480 -2.961519 -3.535667 21.650280 -6.871769 5.127216 -1.713795 71.809647 -29.466499 2.704752 74.042397 -2.154687 33.961563 2.503437 3.598792 21.151505 -16.003246 49.997944 -30.003670 -6.000644 -5.000688 -0.002379 8.826666 33.846447 9.178701 -142.006500 -11.999921 30.002081 101.212891 2.095866 0.317597 56.998447 17.997034 -30.000685 
0.000000 4.831345 0.155121 -76.871719 0.000000 0.000000 7.393962 0.000000 0.000000 28.763826 -0.118849 -0.638964 17.071285 0.000000 0.000000 8.498825 0.000000 0.000000 7.718208 -3.250083 -1.369455 -73.184692 30.151110 2.222652 -75.082138 1.441705 33.989513 -3.919658 -2.900393 21.977989 -7.212740 3.584636 -1.010375 72.912247 -30.070034 2.313786 74.968475 -1.636025 34.001091 3.512125 2.945396 21.497955 -15.211005 49.926846 -29.993683 -5.786498 -5.005983 -0.216520 7.782406 33.407032 9.333405 -141.143997 -11.644622 29.966703 101.606178 2.058415 0.334598 57.241688 19.105827 -30.412374 
0.000000 4.831345 0.310241 -77.727089 0.000000 0.000000 8.250602 0.000000 0.000000 27.267574 -0.118809 -0.638990 16.143484 0.000000 0.000000 7.998967 0.000000 0.000000 8.013018 -1.727781 -0.660651 -74.315247 30.735558 1.811136 -75.951958 0.932633 34.017853 -4.874882 -2.258923 22.295248 -7.535143 2.033795 -0.315201 74.027725 -30.667601 1.906487 75.894951 -1.116259 34.032253 4.517718 2.285096 21.833120 -14.419506 49.855633 -29.985241 -5.572317 -5.010482 -0.430696 6.743732 32.964890 9.477904 -140.282120 -11.288563 29.936802 101.999489 2.020844 0.351344 57.495419 20.214331 -30.832460 
0.000000 4.831345 0.465362 -78.582924 0.000000 0.000000 9.107725 0.000000 0.000000 25.768757 -0.118769 -0.639017 15.215073 0.000000 0.000000 7.499012 0.000000 0.000000 8.289433 -0.198582 0.041540 -75.458748 31.313433 1.383251 -76.822083 0.422799 34.038460 -5.827191 -1.611576 22.601967 -7.839185 0.475632 0.372380 75.156258 -31.258770 1.482685 76.821808 -0.595605 34.055012 5.520202 1.618253 22.156879 -13.628815 49.784336 -29.978336 -5.358104 -5.014183 -0.644904 5.710647 32.520241 9.612269 -139.420929 -10.931870 29.912388 102.392815 1.983154 0.367832 57.760006 21.322214 -31.261360 
0.000000 4.831345 0.620482 -79.439133 0.000000 0.000000 9.965231 0.000000 0.000000 24.267870 -0.118730 -0.639045 14.286179 0.000000 0.000000 6.998984 0.000000 0.000000 8.547602 1.336600 0.737761 -76.615303 31.884287 0.938859 -77.692566 -0.087608 34.051342 -6.776589 -0.958672 22.898060 -8.125056 -1.088905 1.053019 76.297920 -31.843077 1.042226 77.749069 -0.074290 34.069363 6.519574 0.945228 22.469126 -12.838991 49.712929 -29.972946 -5.143868 -5.017088 -0.859135 4.683156 32.073341 9.736579 -138.560440 -10.574669 29.893444 102.786171 1.945348 0.384062 58.035885 22.429150 -31.699526 
0.000000 4.831345 0.775603 -80.295647 0.000000 0.000000 10.823024 0.000000 0.000000 22.765440 -0.118692 -0.639074 13.356915 0.000000 0.000000 6.498898 0.000000 0.000000 8.787638 2.876850 1.428655 -77.784996 32.447689 0.477851 -78.563377 -0.598391 34.056458 -7.723088 -0.300539 23.183430 -8.392915 -2.658867 1.727365 77.452881 -32.420101 0.584969 78.676712 0.447455 34.075275 7.515836 0.266393 22.769753 -12.050116 49.641464 -29.969088 -4.929612 -5.019192 -1.073385 3.661250 31.624393 9.850910 -137.700729 -10.217089 29.879978 103.179543 1.907429 0.400033 58.323429 23.534781 -32.147377 
0.000000 4.831345 0.930723 -81.152351 0.000000 0.000000 11.681011 0.000000 0.000000 21.261974 -0.118655 -0.639104 12.427409 0.000000 0.000000 5.998774 0.000000 0.000000 9.009633 4.421247 2.114868 -78.967911 33.003178 0.000123 -79.434525 -1.109350 34.053814 -8.666706 0.362496 23.458010 -8.642894 -4.233302 2.396070 78.621216 -32.989388 0.110802 79.604698 0.969407 34.072727 8.509006 -0.417879 23.058672 -11.262256 49.569958 -29.966759 -4.715344 -5.020500 -1.287647 2.644930 31.173622 9.955350 -136.841812 -9.859256 29.871965 103.572914 1.869399 0.415743 58.623093 24.638750 -32.605408 
0.000000 4.831345 1.085844 -82.009155 0.000000 0.000000 12.539089 0.000000 0.000000 19.757994 -0.118618 -0.639135 11.497778 0.000000 0.000000 5.498631 0.000000 0.000000 9.213648 5.968866 2.797048 -80.164063 33.550316 -0.494385 -80.306007 -1.620288 34.043385 -9.607469 1.030099 23.721727 -8.875093 -5.811252 3.059786 79.802971 -33.550476 -0.380371 80.533058 1.491343 34.061722 9.499098 -1.107210 23.335789 -10.475478 49.498447 -29.965950 -4.501071 -5.021008 -1.501916 1.634184 30.721279 10.049999 -135.983780 -9.501301 29.869415 103.966278 1.831262 0.431192 58.935352 25.740717 -33.074116 
0.000000 4.831345 1.240965 -82.865952 0.000000 0.000000 13.397174 0.000000 0.000000 18.254011 -0.118582 -0.639167 10.568148 0.000000 0.000000 4.998489 0.000000 0.000000 9.399719 7.518792 3.475850 -81.373489 34.088650 -1.005724 -81.177849 -2.131009 34.025185 -10.545413 1.701935 23.974516 -9.089593 -7.391771 3.719172 80.998207 -34.102932 -0.888622 81.461784 2.013029 34.042259 10.486152 -1.801220 23.601040 -9.689850 49.426926 -29.966646 -4.286797 -5.020720 -1.716186 0.628999 30.267574 10.134955 -135.126617 -9.143342 29.872280 104.359619 1.793019 0.446379 59.260654 26.840302 -33.554001 
0.000000 4.831345 1.396085 -83.722649 0.000000 0.000000 14.255157 0.000000 0.000000 16.750544 -0.118547 -0.639200 9.638642 0.000000 0.000000 4.498365 0.000000 0.000000 9.567849 9.070101 4.151936 -82.596191 34.617748 -1.533916 -82.050041 -2.641314 33.999207 -11.480571 2.377667 24.216320 -9.286432 -8.973903 4.374885 82.206978 -34.646309 -1.413997 82.390869 2.534247 34.014336 11.470198 -2.499523 23.854345 -8.905434 49.355423 -29.968845 -4.072527 -5.019632 -1.930449 -0.370637 29.812738 10.210323 -134.270401 -8.785519 29.880568 104.752930 1.754675 0.461301 59.599548 27.937132 -34.045635 
0.000000 4.831345 1.551206 -84.579147 0.000000 0.000000 15.112951 0.000000 0.000000 15.248114 -0.118513 -0.639234 8.709377 0.000000 0.000000 3.998279 0.000000 0.000000 9.718016 10.621880 4.825974 -83.832115 35.137161 -2.078947 -82.922592 -3.151009 33.965454 -12.412992 3.056956 24.447081 -9.465624 -10.556706 5.027595 83.429237 -35.180141 -1.956520 83.320282 3.054759 33.977943 12.451277 -3.201735 24.095636 -8.122306 49.283970 -29.972551 -3.858269 -5.017747 -2.144701 -1.364744 29.356987 10.276216 -133.415161 -8.427949 29.894249 105.146194 1.716230 0.475959 59.952595 29.030851 -34.549599 
0.000000 4.831345 1.706326 -85.435371 0.000000 0.000000 15.970458 0.000000 0.000000 13.747234 -0.118480 -0.639268 7.780482 0.000000 0.000000 3.498250 0.000000 0.000000 9.850152 12.173215 5.498644 -85.081238 35.646454 -2.640779 -83.795494 -3.659891 33.923931 -13.342729 3.739464 24.666767 -9.627150 -12.139240 5.677977 84.664970 -35.703987 -2.516171 84.250046 3.574344 33.933109 13.429450 -3.907469 24.324881 -7.340520 49.212551 -29.977728 -3.644030 -5.015064 -2.358936 -2.353337 28.900558 10.332749 -132.560959 -8.070761 29.913288 105.539429 1.677689 0.490351 60.320339 30.121063 -35.066479 
0.000000 4.831345 1.861447 -86.291214 0.000000 0.000000 16.827579 0.000000 0.000000 12.248412 -0.118448 -0.639304 6.852075 0.000000 0.000000 2.998297 0.000000 0.000000 9.964175 13.723211 6.170638 -86.343399 36.145172 -3.219339 -84.668747 -4.167769 33.874645 -14.269830 4.424847 24.875324 -9.770959 -13.720575 6.326719 85.914146 -36.217430 -3.092914 85.180138 4.092777 33.879841 14.404772 -4.616336 24.542013 -6.560150 49.141243 -29.984402 -3.429813 -5.011583 -2.573147 -3.336437 28.443653 10.380038 -131.707809 -7.714081 29.937675 105.932594 1.639053 0.504477 60.703381 31.207371 -35.596924 
0.000000 4.831345 2.016567 -87.146584 0.000000 0.000000 17.684219 0.000000 0.000000 10.752163 -0.118417 -0.639340 5.924277 0.000000 0.000000 2.498440 0.000000 0.000000 10.059956 15.270963 6.842658 -87.618546 36.632900 -3.814524 -85.542374 -4.674448 33.817616 -15.194369 5.112770 25.072729 -9.896960 -15.299788 6.974517 87.176651 -36.720009 -3.686676 86.110542 4.609832 33.818157 15.377304 -5.327949 24.746998 -5.781254 49.070007 -29.992525 -3.215627 -5.007305 -2.787329 -4.314068 27.986507 10.418216 -130.855789 -7.358038 29.967384 106.325722 1.600327 0.518335 61.102394 32.289383 -36.141613 
0.000000 4.831345 2.171688 -88.001373 0.000000 0.000000 18.540285 0.000000 0.000000 9.258983 -0.118387 -0.639377 4.997208 0.000000 0.000000 1.998697 0.000000 0.000000 10.137335 16.815598 7.515426 -88.906487 37.109222 -4.426190 -86.416336 -5.179725 33.752846 -16.116396 5.802887 25.258945 -10.005033 -16.875971 7.622085 88.452347 -37.211296 -4.297344 87.041260 5.125289 33.748085 16.347118 -6.041921 24.939800 -5.003899 48.998905 -30.002115 -3.001475 -5.002228 -3.001475 -5.286250 27.529325 10.447405 -130.004898 -7.002746 30.002354 106.718750 1.561511 0.531925 61.518047 33.366695 -36.701248 
0.000000 4.831345 2.016567 -87.146584 0.000000 0.000000 17.684219 0.000000 0.000000 10.752163 -0.118417 -0.639340 5.924276 0.000000 0.000000 2.498440 0.000000 0.000000 10.059956 15.270963 6.842658 -87.618546 36.632900 -3.814524 -85.542374 -4.674448 33.817616 -15.194369 5.112770 25.072729 -9.896960 -15.299788 6.974517 87.176651 -36.720009 -3.686676 86.110542 4.609833 33.818157 15.377304 -5.327950 24.746998 -5.781254 49.070007 -29.992525 -3.215627 -5.007305 -2.787329 -4.314068 27.986506 10.418216 -130.855789 -7.358038 29.967384 106.325714 1.600326 0.518335 61.102394 32.289379 -36.141609 
